<?xml version="1.0" standalone="no"?>
<!DOCTYPE svg PUBLIC "-//W3C//DTD SVG 1.0//EN" "http://www.w3.org/TR/2001/REC-SVG-20010904/DTD/svg10.dtd">
<svg xmlns="http://www.w3.org/2000/svg" xmlns:xlink="http://www.w3.org/1999/xlink" id="body_1" width="410" height="307">

<g transform="matrix(0.40039062 0 0 0.3997396 0 0)">
	<g transform="matrix(7.498811 0 0 7.498811 -0 149.39972)">
	</g>
    <path transform="matrix(7.498811 0 0 7.498811 -0 149.39972)"  d="M33.3358 47.2071L33.3358 11.8656L13.7899 35.1093L29.856 35.1093L29.8639 47.2075L0 47.2075L0 35.1262L28.0392 0.1184L45.1378 0.1184L45.1378 47.2071L33.3358 47.2071" stroke="none" fill="#0067AA" fill-rule="nonzero" />
	<g transform="matrix(7.498811 0 0 7.498811 -0 149.39972)">
	</g>
    <path transform="matrix(7.498811 0 0 7.498811 -0 149.39972)"  d="M88.2081 47.2071L88.2081 11.9687L74.3582 11.9687C 67.0763 11.9687 62.6502 16.3987 62.6502 23.6349C 62.6502 30.871098 67.0776 35.1092 74.3151 35.1092L74.3151 35.1092L84.6957 35.1092L84.6957 47.2023L74.413 47.2071C 61.385403 47.2071 50.856102 36.6769 50.856102 23.6884C 50.856102 10.7078 61.300602 0.118400574 74.293 0.118400574L74.293 0.118400574L100.0114 0.118400574L100.0114 47.207L88.2081 47.207L88.2081 47.2071z" stroke="none" fill="#0067AA" fill-rule="nonzero" />
	<g transform="matrix(7.498811 0 0 7.498811 -0 149.39972)">
	</g>
    <path transform="matrix(7.498811 0 0 7.498811 -0 149.39972)"  d="M33.3346 50.6786L45.136597 50.6786L45.136597 62.4806L33.3346 62.4806L33.3346 50.6786z" stroke="none" fill="#868788" fill-rule="nonzero" />
	<g transform="matrix(7.498811 0 0 7.498811 -0 149.39972)">
	</g>
    <path transform="matrix(7.498811 0 0 7.498811 -0 149.39972)"  d="M103.5833 44.2775C 103.5833 42.275 104.5792 41.8392 106.0317 41.8392L106.0317 41.8392L108.2729 41.8392C 109.7463 41.8392 110.649 42.3787 110.649 43.592598L110.649 43.592598L110.649 44.07L108.7193 44.07C 108.7193 43.5305 108.4391 43.3333 107.5676 43.3333L107.5676 43.3333L106.7995 43.3333C 105.9695 43.3333 105.5754 43.5616 105.5754 44.1427L105.5754 44.1427L105.5754 44.8482C 105.5754 45.533 106.011 45.7405 106.6335 45.7405L106.6335 45.7405L107.6504 45.7405C 108.2107 45.7405 108.7193 45.616 108.7193 45.1283L108.7193 45.1283L108.7193 45.0038L110.649 45.0038L110.649 45.4708C 110.649 46.892197 109.4662 47.296898 108.324905 47.296898L108.324905 47.296898L106.29121 47.296898C 104.97361 47.296898 103.583206 47.0478 103.583206 44.786L103.583206 44.786L103.583206 44.2775L103.5833 44.2775z" stroke="none" fill="#0067AA" fill-rule="nonzero" />
	<g transform="matrix(7.498811 0 0 7.498811 -0 149.39972)">
	</g>
    <path transform="matrix(7.498811 0 0 7.498811 -0 149.39972)"  d="M112.246 43.3541L111.2498 43.3541L111.2498 41.9222L112.246 41.9222L112.246 40.6771L114.238205 40.6771L114.238205 41.922203L117.33011 41.922203L117.33011 43.354103L114.238205 43.354103L114.238205 45.387802C 114.238205 45.782 114.5285 45.865 115.006004 45.865C 115.6491 45.865 115.82551 45.7197 115.82551 45.232002L115.82551 45.232002L115.82551 44.879303L117.56861 44.879303L117.56861 45.522602C 117.56861 46.529003 116.90451 47.296803 115.317215 47.296803L115.317215 47.296803L114.52852 47.296803C 113.304115 47.296803 112.24602 46.912903 112.24602 45.4499L112.24602 45.4499L112.24602 43.3541L112.246 43.3541z" stroke="none" fill="#0067AA" fill-rule="nonzero" />
	<g transform="matrix(7.498811 0 0 7.498811 -0 149.39972)">
	</g>
    <path transform="matrix(7.498811 0 0 7.498811 -0 149.39972)"  d="M120.7948 41.2581L118.8026 41.2581L118.8026 39.7017L120.7948 39.7017L120.7948 41.2581zM120.7948 47.2139L118.8026 47.2139L118.8026 41.922203L120.7948 41.922203L120.7948 47.2139z" stroke="none" fill="#0067AA" fill-rule="nonzero" />
	<g transform="matrix(7.498811 0 0 7.498811 -0 149.39972)">
	</g>
    <path transform="matrix(7.498811 0 0 7.498811 -0 149.39972)"  d="M121.6553 41.9222L123.8239 41.9222L125.4426 45.6575L127.061295 41.922203L129.22989 41.922203L126.68759 47.2139L124.19729 47.2139L121.6553 41.9222z" stroke="none" fill="#0067AA" fill-rule="nonzero" />
	<g transform="matrix(7.498811 0 0 7.498811 -0 149.39972)">
	</g>
    <path transform="matrix(7.498811 0 0 7.498811 -0 149.39972)"  d="M129.7269 44.2775C 129.7269 42.275 130.7228 41.8392 132.1754 41.8392L132.1754 41.8392L133.566 41.8392C 135.68259 41.8392 136.5541 42.285297 136.5541 44.1218L136.5541 44.1218L136.5541 45.0141L131.71909 45.0141L131.71909 45.3357C 131.71909 45.896 132.11319 46.0518 132.94348 46.0518L132.94348 46.0518L133.55548 46.0518C 134.63458 46.0518 134.68658 45.7612 134.68658 45.4499L134.68658 45.4499L136.55408 45.4499L136.55408 45.6782C 136.55408 47.006298 135.37128 47.2968 133.92897 47.2968L133.92897 47.2968L132.43488 47.2968C 131.11717 47.2968 129.72688 47.0477 129.72688 44.7859L129.72688 44.7859L129.72688 44.2775L129.7269 44.2775zM134.6241 43.8314C 134.6241 43.198402 134.3338 43.0842 133.1716 43.0842C 131.8746 43.0842 131.7191 43.198402 131.7191 43.8314L131.7191 43.8314L134.6241 43.8314z" stroke="none" fill="#0067AA" fill-rule="nonzero" />
	<g transform="matrix(7.498811 0 0 7.498811 -0 149.39972)">
	</g>
    <path transform="matrix(7.498811 0 0 7.498811 -0 149.39972)"  d="M52.2143 58.1539L54.818798 58.1539C 54.830498 59.0573 55.1942 59.1277 55.9451 59.1277L55.9451 59.1277L59.1362 59.1277C 59.6876 59.1277 60.2507 59.069 60.2507 58.412003C 60.2507 57.6729 59.9457 57.626003 56.5903 57.626003C 52.671803 57.626003 52.226 57.156704 52.226 55.068405C 52.226 53.531506 52.366802 52.346603 55.651703 52.346603L55.651703 52.346603L59.288605 52.346603C 62.292004 52.346603 62.573605 53.367302 62.573605 54.857204L62.573605 54.857204L62.573605 55.127003L59.969105 55.127003C 59.969105 54.505203 59.898705 54.2471 58.702003 54.2471L58.702003 54.2471L55.816 54.2471C 55.2294 54.2471 54.8305 54.446503 54.8305 54.904102C 54.8305 55.643204 55.1473 55.666702 57.939503 55.654903C 61.987003 55.643204 62.925602 55.889503 62.925602 58.365C 62.925602 60.652702 62.151302 61.028202 58.690403 61.028202L58.690403 61.028202L55.534504 61.028202C 53.164604 61.028202 52.214405 60.5824 52.214405 58.7405L52.214405 58.7405L52.214405 58.1539L52.2143 58.1539z" stroke="none" fill="#4B4B4D" fill-rule="nonzero" />
	<g transform="matrix(7.498811 0 0 7.498811 -0 149.39972)">
	</g>
    <path transform="matrix(7.498811 0 0 7.498811 -0 149.39972)"  d="M68.4413 57.9779L63.7368 52.440403L66.881004 52.440403L69.74361 55.9131L72.60621 52.4404L75.75041 52.4404L71.04591 57.977898L71.04591 60.9344L68.441414 60.9344L68.441414 57.9779L68.4413 57.9779z" stroke="none" fill="#4B4B4D" fill-rule="nonzero" />
	<g transform="matrix(7.498811 0 0 7.498811 -0 149.39972)">
	</g>
    <path transform="matrix(7.498811 0 0 7.498811 -0 149.39972)"  d="M76.5617 58.1539L79.1662 58.1539C 79.1781 59.0573 79.541595 59.1277 80.292496 59.1277L80.292496 59.1277L83.4836 59.1277C 84.0349 59.1277 84.598 59.069 84.598 58.412003C 84.598 57.6729 84.2933 57.626003 80.9376 57.626003C 77.0194 57.626003 76.5733 57.156704 76.5733 55.068405C 76.5733 53.531506 76.7141 52.346603 79.999 52.346603L79.999 52.346603L83.6362 52.346603C 86.6396 52.346603 86.9212 53.367302 86.9212 54.857204L86.9212 54.857204L86.9212 55.127003L84.31641 55.127003C 84.31641 54.505203 84.24631 54.2471 83.04931 54.2471L83.04931 54.2471L80.163506 54.2471C 79.57661 54.2471 79.17801 54.446503 79.17801 54.904102C 79.17801 55.643204 79.494606 55.666702 82.28681 55.654903C 86.33421 55.643204 87.27271 55.889503 87.27271 58.365C 87.27271 60.652702 86.49871 61.028202 83.03761 61.028202L83.03761 61.028202L79.882 61.028202C 77.5119 61.028202 76.56171 60.5824 76.56171 58.7405L76.56171 58.7405L76.56171 58.1539L76.5617 58.1539z" stroke="none" fill="#4B4B4D" fill-rule="nonzero" />
	<g transform="matrix(7.498811 0 0 7.498811 -0 149.39972)">
	</g>
    <path transform="matrix(7.498811 0 0 7.498811 -0 149.39972)"  d="M88.2603 52.4405L98.1855 52.4405L98.1855 54.5523L94.5251 54.5523L94.5251 60.934498L91.9206 60.934498L91.9206 54.5523L88.2602 54.5523L88.2602 52.4405L88.2603 52.4405z" stroke="none" fill="#4B4B4D" fill-rule="nonzero" />
	<g transform="matrix(7.498811 0 0 7.498811 -0 149.39972)">
	</g>
    <path transform="matrix(7.498811 0 0 7.498811 -0 149.39972)"  d="M99.3254 52.4405L108.6171 52.4405L108.6171 54.4115L101.9296 54.4115L101.9296 55.7724L108.2649 55.7724L108.2649 57.5322L101.9296 57.5322L101.9296 58.8931L108.7695 58.8931L108.7695 60.9345L99.3254 60.9345L99.3254 52.4405z" stroke="none" fill="#4B4B4D" fill-rule="nonzero" />
	<g transform="matrix(7.498811 0 0 7.498811 -0 149.39972)">
	</g>
    <path transform="matrix(7.498811 0 0 7.498811 -0 149.39972)"  d="M110.3433 52.4405L114.3438 52.4405L117.288704 57.9076L120.23331 52.4405L124.23401 52.4405L124.23401 60.9344L121.699905 60.9344L121.699905 54.833797L121.6761 54.833797L118.2622 60.9344L116.3147 60.9344L112.9006 54.833797L112.877396 54.833797L112.877396 60.9344L110.34329 60.9344L110.34329 52.4405L110.3433 52.4405z" stroke="none" fill="#4B4B4D" fill-rule="nonzero" />
	<g transform="matrix(7.498811 0 0 7.498811 -0 149.39972)">
	</g>
    <path transform="matrix(7.498811 0 0 7.498811 -0 149.39972)"  d="M125.8436 58.1539L128.4481 58.1539C 128.4597 59.0573 128.8235 59.1277 129.5744 59.1277L129.5744 59.1277L132.7655 59.1277C 133.317 59.1277 133.8802 59.069 133.8802 58.412003C 133.8802 57.6729 133.5749 57.626003 130.2198 57.626003C 126.301 57.626003 125.8555 57.156704 125.8555 55.068405C 125.8555 53.531506 125.9963 52.346603 129.2812 52.346603L129.2812 52.346603L132.9178 52.346603C 135.9212 52.346603 136.2028 53.367302 136.2028 54.857204L136.2028 54.857204L136.2028 55.127003L133.5986 55.127003C 133.5986 54.505203 133.52791 54.2471 132.3315 54.2471L132.3315 54.2471L129.44519 54.2471C 128.85889 54.2471 128.45969 54.446503 128.45969 54.904102C 128.45969 55.643204 128.77658 55.666702 131.56879 55.654903C 135.61649 55.643204 136.555 55.889503 136.555 58.365C 136.555 60.652702 135.7804 61.028202 132.3196 61.028202L132.3196 61.028202L129.16359 61.028202C 126.79399 61.028202 125.84359 60.5824 125.84359 58.7405L125.84359 58.7405L125.84359 58.1539L125.8436 58.1539z" stroke="none" fill="#4B4B4D" fill-rule="nonzero" />
</g>
</svg>