<?xml version="1.0" encoding="utf-8"?>
<!-- Generator: Adobe Illustrator 22.1.0, SVG Export Plug-In . SVG Version: 6.00 Build 0)  -->
<svg version="1.1" id="Ebene_1" xmlns="http://www.w3.org/2000/svg" xmlns:xlink="http://www.w3.org/1999/xlink" x="0px" y="0px"
	 viewBox="0 0 136.555 62.57" style="enable-background:new 0 0 136.555 62.57;" xml:space="preserve">
<style type="text/css">
	.st0{fill:#0067AA;}
	.st1{fill:#868788;}
	.st2{fill:#4B4B4D;}
</style>
<g>
	<g>
		<polygon id="_x34__13_" class="st0" points="33.3358,47.2071 33.3358,11.8656 13.7899,35.1093 29.856,35.1093 29.8639,47.2075 
			0,47.2075 0,35.1262 28.0392,0.1184 45.1378,0.1184 45.1378,47.2071 		"/>
		<path id="a_11_" class="st0" d="M88.2081,47.2071V11.9687H74.3582c-7.2819,0-11.708,4.43-11.708,11.6662
			s4.4274,11.4743,11.6649,11.4743h10.3806v12.0931L74.413,47.2071c-13.0276,0-23.5569-10.5302-23.5569-23.5187
			c0-12.9806,10.4445-23.57,23.4369-23.57h25.7184v47.0886H88.2081z"/>
	</g>
	<rect id="punkt_11_" x="33.3346" y="50.6786" class="st1" width="11.802" height="11.802"/>
	<g>
		<path class="st0" d="M103.5833,44.2775c0-2.0025,0.9959-2.4383,2.4484-2.4383h2.2412c1.4734,0,2.3761,0.5395,2.3761,1.7534V44.07
			h-1.9297c0-0.5395-0.2802-0.7367-1.1517-0.7367h-0.7681c-0.83,0-1.2241,0.2283-1.2241,0.8094v0.7055
			c0,0.6848,0.4356,0.8923,1.0581,0.8923h1.0169c0.5603,0,1.0689-0.1245,1.0689-0.6122v-0.1245h1.9297v0.467
			c0,1.4214-1.1828,1.8261-2.3241,1.8261h-2.0337c-1.3176,0-2.708-0.2491-2.708-2.5109V44.2775z"/>
		<path class="st0" d="M112.246,43.3541h-0.9962v-1.4319h0.9962v-1.2451h1.9922v1.2451h3.0919v1.4319h-3.0919v2.0337
			c0,0.3942,0.2903,0.4772,0.7678,0.4772c0.6431,0,0.8195-0.1453,0.8195-0.633v-0.3527h1.7431v0.6433
			c0,1.0064-0.6641,1.7742-2.2514,1.7742h-0.7887c-1.2244,0-2.2825-0.3839-2.2825-1.8469V43.3541z"/>
		<path class="st0" d="M120.7948,41.2581h-1.9922v-1.5564h1.9922V41.2581z M120.7948,47.2139h-1.9922v-5.2917h1.9922V47.2139z"/>
		<path class="st0" d="M121.6553,41.9222h2.1686l1.6187,3.7353l1.6187-3.7353h2.1686l-2.5423,5.2917h-2.4903L121.6553,41.9222z"/>
		<path class="st0" d="M129.7269,44.2775c0-2.0025,0.9959-2.4383,2.4485-2.4383h1.3906c2.1166,0,2.9881,0.4461,2.9881,2.2826v0.8923
			h-4.835v0.3216c0,0.5603,0.3941,0.7161,1.2244,0.7161h0.612c1.0791,0,1.1311-0.2906,1.1311-0.6019h1.8675v0.2283
			c0,1.3281-1.1828,1.6186-2.6251,1.6186h-1.4941c-1.3177,0-2.708-0.2491-2.708-2.5109V44.2775z M134.6241,43.8314
			c0-0.633-0.2903-0.7472-1.4525-0.7472c-1.297,0-1.4525,0.1142-1.4525,0.7472H134.6241z"/>
	</g>
	<g>
		<path class="st2" d="M52.2143,58.1539h2.6045c0.0117,0.9034,0.3754,0.9738,1.1263,0.9738h3.1911
			c0.5514,0,1.1145-0.0587,1.1145-0.7157c0-0.7391-0.305-0.786-3.6604-0.786c-3.9185,0-4.3643-0.4693-4.3643-2.5576
			c0-1.5369,0.1408-2.7218,3.4257-2.7218h3.6369c3.0034,0,3.285,1.0207,3.285,2.5106v0.2698h-2.6045
			c0-0.6218-0.0704-0.8799-1.2671-0.8799H55.816c-0.5866,0-0.9855,0.1994-0.9855,0.657c0,0.7391,0.3168,0.7626,3.109,0.7508
			c4.0475-0.0117,4.9861,0.2346,4.9861,2.7101c0,2.2877-0.7743,2.6632-4.2352,2.6632h-3.1559c-2.3699,0-3.3201-0.4458-3.3201-2.2877
			V58.1539z"/>
		<path class="st2" d="M68.4413,57.9779l-4.7045-5.5375h3.1442l2.8626,3.4727l2.8626-3.4727h3.1442l-4.7045,5.5375v2.9565h-2.6045
			V57.9779z"/>
		<path class="st2" d="M76.5617,58.1539h2.6045c0.0119,0.9034,0.3754,0.9738,1.1263,0.9738h3.1911
			c0.5513,0,1.1144-0.0587,1.1144-0.7157c0-0.7391-0.3047-0.786-3.6604-0.786c-3.9182,0-4.3643-0.4693-4.3643-2.5576
			c0-1.5369,0.1408-2.7218,3.4257-2.7218h3.6372c3.0034,0,3.285,1.0207,3.285,2.5106v0.2698h-2.6048
			c0-0.6218-0.0701-0.8799-1.2671-0.8799h-2.8858c-0.5869,0-0.9855,0.1994-0.9855,0.657c0,0.7391,0.3166,0.7626,3.1088,0.7508
			c4.0474-0.0117,4.9859,0.2346,4.9859,2.7101c0,2.2877-0.774,2.6632-4.2351,2.6632H79.882c-2.3701,0-3.3203-0.4458-3.3203-2.2877
			V58.1539z"/>
		<path class="st2" d="M88.2603,52.4405h9.9252v2.1118h-3.6604v6.3822h-2.6045v-6.3822h-3.6604V52.4405z"/>
		<path class="st2" d="M99.3254,52.4405h9.2917v1.971h-6.6875v1.3609h6.3353v1.7598h-6.3353v1.3609h6.8399v2.0414h-9.4441V52.4405z"
			/>
		<path class="st2" d="M110.3433,52.4405h4.0005l2.9449,5.4671l2.9446-5.4671h4.0007v8.4939h-2.5341v-6.1006h-0.0238l-3.4139,6.1006
			h-1.9475l-3.4141-6.1006h-0.0232v6.1006h-2.5341V52.4405z"/>
		<path class="st2" d="M125.8436,58.1539h2.6045c0.0116,0.9034,0.3754,0.9738,1.1263,0.9738h3.1911
			c0.5515,0,1.1147-0.0587,1.1147-0.7157c0-0.7391-0.3053-0.786-3.6604-0.786c-3.9188,0-4.3643-0.4693-4.3643-2.5576
			c0-1.5369,0.1408-2.7218,3.4257-2.7218h3.6366c3.0034,0,3.285,1.0207,3.285,2.5106v0.2698h-2.6042
			c0-0.6218-0.0707-0.8799-1.2671-0.8799h-2.8863c-0.5863,0-0.9855,0.1994-0.9855,0.657c0,0.7391,0.3169,0.7626,3.1091,0.7508
			c4.0477-0.0117,4.9862,0.2346,4.9862,2.7101c0,2.2877-0.7746,2.6632-4.2354,2.6632h-3.156c-2.3696,0-3.32-0.4458-3.32-2.2877
			V58.1539z"/>
	</g>
</g>
</svg>
